<svg width="280" height="62" viewBox="0 0 280 62" fill="none" xmlns="http://www.w3.org/2000/svg">
<path d="M107.52 26.7084L114.351 17.2832H122.404L113.508 28.08L118.83 44.7149H111.475L108.392 34.2697L106.149 36.9778L105.169 44.7149H98.5156L102.086 17.2832H108.74L107.513 26.7084H107.52Z" fill="black"/>
<path d="M134.938 44.7149H128.285L131.856 17.2832H138.509L134.938 44.7149Z" fill="black"/>
<path d="M153.467 31.7026C152.838 36.4856 153.116 39.4397 156.267 39.4397H156.651C158.999 39.4397 160.012 37.6813 160.33 35.2195H166.983L166.947 35.536C166.177 42.6401 162.219 45.2074 156.09 45.2074C148.735 45.2074 145.443 41.1982 146.705 31.7026L146.879 30.3662C148.138 20.8706 151.712 16.791 159.067 16.791C165.721 16.791 168.977 19.8507 168.137 26.4624L167.964 27.834H161.311C161.73 24.6688 161.484 22.5587 158.858 22.5587H158.474C155.146 22.5587 154.27 25.6184 153.641 30.3662L153.467 31.7026Z" fill="black"/>
<path d="M184.739 26.7084L191.57 17.2832H199.623L190.727 28.08L196.049 44.7149H188.694L185.611 34.2697L183.368 36.9778L182.388 44.7149H175.734L179.305 17.2832H185.958L184.732 26.7084H184.739Z" fill="black"/>
<path d="M206.941 29.5918H216.746L216.011 35.2188H206.207L206.941 29.5918Z" fill="black"/>
<path d="M247.74 30.2958L247.567 31.6323C246.304 41.1278 242.769 45.2074 235.414 45.2074C228.059 45.2074 224.767 41.1982 226.029 31.7026L226.203 30.3662C227.462 20.8706 231.037 16.791 238.392 16.791C245.747 16.791 249.003 20.8003 247.744 30.2958H247.74ZM235.971 39.4397C239.122 39.4397 240.175 36.4152 240.805 31.6323L240.978 30.2958C241.608 25.5129 241.329 22.5587 238.178 22.5587H237.795C234.644 22.5587 233.591 25.5832 232.961 30.3662L232.788 31.7026C232.158 36.4856 232.437 39.4397 235.588 39.4397H235.975H235.971Z" fill="black"/>
<path d="M276.424 44.7149H269.419L263.852 29.5923L263.327 34.8676L262.068 44.7149H255.766L259.336 17.2832H266.341L271.909 32.4058L272.401 27.1305L273.696 17.2832H279.998L276.427 44.7149H276.424Z" fill="black"/>
<path d="M38.1641 10.1077L39.6179 5.06248C39.6179 5.06248 40.3448 -0.343124 45.7965 0.0172499L52.3386 0.377624L50.5213 6.86435C50.5213 6.86435 49.7944 11.1888 46.1599 10.8285" fill="black"/>
<path d="M26.1683 13.35C26.1683 13.35 10.54 11.1877 0 24.1612L9.08623 27.0442C10.54 20.5575 17.9471 16.8168 17.9471 16.8168C17.9471 16.8168 24.0821 13.8185 26.1683 13.35Z" fill="black"/>
<path d="M12.7673 15.0909C12.7673 15.0909 4.36075 18.3955 9.08559 27.0445C9.08559 27.0445 9.72163 21.3686 17.9465 16.8171C17.9465 16.8171 25.0774 13.3503 26.1677 13.3503C26.1677 13.3503 20.0872 12.507 12.7673 15.0909Z" fill="#C00C0B"/>
<path d="M56.245 18.0781C56.245 18.0781 59.2435 22.3594 47.9766 23.8009L52.338 29.4155C52.338 29.4155 60.5156 23.1666 56.245 18.0781Z" fill="#C00C0B"/>
<path d="M45.793 12.9922C45.793 12.9922 66.5096 16.2968 52.3351 29.418C52.3351 29.418 61.0578 26.326 63.2385 22.3619C63.2385 22.3619 63.9654 21.2628 63.2385 19.4681C63.2385 19.4681 62.1482 14.4337 45.793 12.9922Z" fill="black"/>
<path d="M15.9896 36.0536C15.9896 36.0536 21.4414 31.7291 32.3449 30.2876C32.3449 30.2876 21.9066 28.7777 22.7643 17.1016C22.7643 17.1016 18.3412 19.6242 15.35 26.5794C15.35 26.5794 13.0821 32.4535 15.9896 36.0572V36.0536Z" fill="black"/>
<path d="M45.0687 12.6283C45.0687 12.6283 33.1802 12.8553 28.9497 20.1277C28.9497 20.1277 25.8059 25.9621 32.3479 30.2866C32.3479 30.2866 26.5328 31.0074 23.2617 24.881C23.2617 24.881 27.9866 10.8264 45.0687 12.6283Z" fill="#C00C0B"/>
<path d="M23.2605 24.8836C23.2605 24.8836 20.9708 20.1374 22.4791 17.2833C22.4791 17.2833 30.1661 10.4686 45.0675 12.6309C45.0675 12.6309 38.1619 11.9101 31.2564 16.595L23.2605 24.8836Z" fill="#C00C0B"/>
<path d="M4.72266 52.9914C4.72266 52.9914 7.63025 58.397 11.2647 62.0007C11.2647 62.0007 27.9507 55.6546 27.1257 46.793C27.1257 46.793 12.7185 52.9914 4.72266 52.9914Z" fill="black"/>
<path d="M15.9896 36.0547C15.9896 36.0547 26.5296 51.1904 4.72266 52.9922C4.72266 52.9922 18.5337 53.3526 23.9855 50.4696C24.7124 50.1093 30.6693 48.1272 23.9855 41.8099C23.9855 41.8099 22.1682 40.0188 15.9896 36.0547Z" fill="#C00C0B"/>
<path d="M52.7254 52.2872C52.7254 52.2872 56.6979 48.6654 61.4227 43.6202C61.4227 43.6202 58.0208 37.5695 49 33.209C49 33.209 53.8411 49.0618 52.7254 52.2872Z" fill="black"/>
<path d="M32.3477 30.2891C32.3477 30.2891 49.1172 31.4027 52.7263 52.2899C52.7263 52.2899 56.6988 46.1456 53.7912 38.9381C53.7912 38.9381 51.9739 33.8929 47.2491 32.4514C47.2491 32.4514 41.4339 29.9288 32.3477 30.2891Z" fill="#C00C0B"/>
<path d="M71.9636 43.2624C75.1753 43.2624 77.7788 40.6809 77.7788 37.4964C77.7788 34.312 75.1753 31.7305 71.9636 31.7305C68.752 31.7305 66.1484 34.312 66.1484 37.4964C66.1484 40.6809 68.752 43.2624 71.9636 43.2624Z" fill="black"/>
</svg>
