<svg width="78" height="62" viewBox="0 0 78 62" fill="none" xmlns="http://www.w3.org/2000/svg">
<path d="M38.1641 10.1077L39.6179 5.06248C39.6179 5.06248 40.3448 -0.343124 45.7965 0.0172499L52.3386 0.377624L50.5213 6.86435C50.5213 6.86435 49.7944 11.1888 46.1599 10.8285" fill="black"/>
<path d="M26.1683 13.35C26.1683 13.35 10.54 11.1877 0 24.1612L9.08623 27.0442C10.54 20.5575 17.9471 16.8168 17.9471 16.8168C17.9471 16.8168 24.0821 13.8185 26.1683 13.35Z" fill="black"/>
<path d="M12.7673 15.0909C12.7673 15.0909 4.36075 18.3955 9.08559 27.0445C9.08559 27.0445 9.72163 21.3686 17.9465 16.8171C17.9465 16.8171 25.0774 13.3503 26.1677 13.3503C26.1677 13.3503 20.0872 12.507 12.7673 15.0909Z" fill="#C00C0B"/>
<path d="M56.245 18.0781C56.245 18.0781 59.2435 22.3594 47.9766 23.8009L52.338 29.4155C52.338 29.4155 60.5156 23.1666 56.245 18.0781Z" fill="#C00C0B"/>
<path d="M45.793 12.9922C45.793 12.9922 66.5096 16.2968 52.3351 29.418C52.3351 29.418 61.0578 26.326 63.2385 22.3619C63.2385 22.3619 63.9654 21.2628 63.2385 19.4681C63.2385 19.4681 62.1482 14.4337 45.793 12.9922Z" fill="black"/>
<path d="M15.9896 36.0536C15.9896 36.0536 21.4414 31.7291 32.3449 30.2876C32.3449 30.2876 21.9066 28.7777 22.7643 17.1016C22.7643 17.1016 18.3412 19.6242 15.35 26.5794C15.35 26.5794 13.0821 32.4535 15.9896 36.0572V36.0536Z" fill="black"/>
<path d="M45.0687 12.6283C45.0687 12.6283 33.1802 12.8553 28.9497 20.1277C28.9497 20.1277 25.8059 25.9621 32.3479 30.2866C32.3479 30.2866 26.5328 31.0074 23.2617 24.881C23.2617 24.881 27.9866 10.8264 45.0687 12.6283Z" fill="#C00C0B"/>
<path d="M23.2605 24.8836C23.2605 24.8836 20.9708 20.1374 22.4791 17.2833C22.4791 17.2833 30.1661 10.4686 45.0675 12.6309C45.0675 12.6309 38.1619 11.9101 31.2564 16.595L23.2605 24.8836Z" fill="#C00C0B"/>
<path d="M4.72266 52.9914C4.72266 52.9914 7.63025 58.397 11.2647 62.0007C11.2647 62.0007 27.9507 55.6546 27.1257 46.793C27.1257 46.793 12.7185 52.9914 4.72266 52.9914Z" fill="black"/>
<path d="M15.9896 36.0547C15.9896 36.0547 26.5296 51.1904 4.72266 52.9922C4.72266 52.9922 18.5337 53.3526 23.9855 50.4696C24.7124 50.1093 30.6693 48.1272 23.9855 41.8099C23.9855 41.8099 22.1682 40.0188 15.9896 36.0547Z" fill="#C00C0B"/>
<path d="M52.7254 52.2872C52.7254 52.2872 56.6979 48.6654 61.4227 43.6202C61.4227 43.6202 58.0208 37.5695 49 33.209C49 33.209 53.8411 49.0618 52.7254 52.2872Z" fill="black"/>
<path d="M32.3477 30.2891C32.3477 30.2891 49.1172 31.4027 52.7263 52.2899C52.7263 52.2899 56.6988 46.1456 53.7912 38.9381C53.7912 38.9381 51.9739 33.8929 47.2491 32.4514C47.2491 32.4514 41.4339 29.9288 32.3477 30.2891Z" fill="#C00C0B"/>
<path d="M71.9636 43.2624C75.1753 43.2624 77.7788 40.6809 77.7788 37.4964C77.7788 34.312 75.1753 31.7305 71.9636 31.7305C68.752 31.7305 66.1484 34.312 66.1484 37.4964C66.1484 40.6809 68.752 43.2624 71.9636 43.2624Z" fill="black"/>
</svg>
