<svg width="216" height="48" viewBox="0 0 216 48" fill="none" xmlns="http://www.w3.org/2000/svg">
<path d="M82.9466 20.6779L88.2158 13.3809H94.4284L87.5655 21.7398L91.671 34.6185H85.997L83.6192 26.5318L81.8888 28.6284L81.1325 34.6185H76L78.7546 13.3809H83.8871L82.941 20.6779H82.9466Z" fill="white"/>
<path d="M104.097 34.6185H98.9648L101.719 13.3809H106.852L104.097 34.6185Z" fill="white"/>
<path d="M118.392 24.5446C117.907 28.2475 118.122 30.5347 120.553 30.5347H120.848C122.66 30.5347 123.441 29.1733 123.687 27.2673H128.819L128.791 27.5124C128.197 33.0124 125.144 35 120.416 35C114.742 35 112.202 31.896 113.176 24.5446L113.31 23.5099C114.281 16.1584 117.039 13 122.713 13C127.845 13 130.357 15.3688 129.71 20.4876L129.576 21.5495H124.443C124.767 19.099 124.577 17.4653 122.551 17.4653H122.255C119.687 17.4653 119.012 19.8342 118.526 23.5099L118.392 24.5446Z" fill="white"/>
<path d="M142.517 20.6779L147.786 13.3809H153.999L147.136 21.7398L151.241 34.6185H145.567L143.189 26.5318L141.459 28.6284L140.703 34.6185H135.57L138.325 13.3809H143.457L142.511 20.6779H142.517Z" fill="white"/>
<path d="M159.645 22.9102H167.208L166.642 27.2666H159.078L159.645 22.9102Z" fill="white"/>
<path d="M191.116 23.4554L190.982 24.4901C190.008 31.8416 187.281 35 181.607 35C175.933 35 173.394 31.896 174.368 24.5446L174.502 23.5099C175.473 16.1584 178.23 13 183.904 13C189.578 13 192.09 16.104 191.119 23.4554H191.116ZM182.037 30.5347C184.468 30.5347 185.28 28.1931 185.766 24.4901L185.9 23.4554C186.385 19.7525 186.17 17.4653 183.739 17.4653H183.444C181.013 17.4653 180.201 19.8069 179.715 23.5099L179.581 24.5446C179.095 28.2475 179.31 30.5347 181.741 30.5347H182.04H182.037Z" fill="white"/>
<path d="M213.241 34.6185H207.838L203.542 22.9106L203.138 26.9947L202.166 34.6185H197.305L200.059 13.3809H205.463L209.758 25.0888L210.137 21.0046L211.136 13.3809H215.998L213.244 34.6185H213.241Z" fill="white"/>
<path d="M29.4375 7.82539L30.559 3.91937C30.559 3.91937 31.1197 -0.265646 35.3254 0.0133549L40.3721 0.292356L38.9702 5.31438C38.9702 5.31438 38.4095 8.6624 35.6057 8.3834" fill="#C00C0B"/>
<path d="M20.1869 10.3351C20.1869 10.3351 8.13085 8.66109 0 18.7051L7.00936 20.9371C8.13085 15.9151 13.8449 13.0191 13.8449 13.0191C13.8449 13.0191 18.5776 10.6978 20.1869 10.3351Z" fill="#C00C0B"/>
<path d="M9.8503 11.6838C9.8503 11.6838 3.36524 14.2422 7.01011 20.9383C7.01011 20.9383 7.50076 16.544 13.8456 13.0202C13.8456 13.0202 19.3466 10.3362 20.1877 10.3362C20.1877 10.3362 15.497 9.68334 9.8503 11.6838Z" fill="#C00C0B"/>
<path d="M43.3863 13.9961C43.3863 13.9961 45.6994 17.3106 37.0078 18.4266L40.3723 22.7735C40.3723 22.7735 46.6807 17.9356 43.3863 13.9961Z" fill="#C00C0B"/>
<path d="M35.3281 10.0586C35.3281 10.0586 51.3095 12.617 40.3749 22.7755C40.3749 22.7755 47.1038 20.3816 48.7861 17.3126C48.7861 17.3126 49.3468 16.4617 48.7861 15.0722C48.7861 15.0722 47.945 11.1746 35.3281 10.0586Z" fill="#C00C0B"/>
<path d="M12.3345 27.9129C12.3345 27.9129 16.5401 24.5649 24.9514 23.4489C24.9514 23.4489 16.899 22.2799 17.5607 13.2402C17.5607 13.2402 14.1486 15.1932 11.8411 20.578C11.8411 20.578 10.0915 25.1257 12.3345 27.9157V27.9129Z" fill="#C00C0B"/>
<path d="M34.7678 9.77782C34.7678 9.77782 25.5967 9.95359 22.3332 15.5838C22.3332 15.5838 19.9079 20.1009 24.9547 23.4489C24.9547 23.4489 20.4687 24.0069 17.9453 19.2639C17.9453 19.2639 21.5902 8.38281 34.7678 9.77782Z" fill="#C00C0B"/>
<path d="M17.9448 19.2653C17.9448 19.2653 16.1785 15.5909 17.342 13.3812C17.342 13.3812 23.2719 8.10529 34.7673 9.7793C34.7673 9.7793 29.4402 9.22129 24.1131 12.8483L17.9448 19.2653Z" fill="#C00C0B"/>
<path d="M3.64453 41.0254C3.64453 41.0254 5.88752 45.2104 8.69127 48.0004C8.69127 48.0004 21.5632 43.0872 20.9268 36.2266C20.9268 36.2266 9.81276 41.0254 3.64453 41.0254Z" fill="#C00C0B"/>
<path d="M12.3361 27.9141C12.3361 27.9141 20.467 39.6321 3.64453 41.0271C3.64453 41.0271 14.2987 41.3061 18.5044 39.0741C19.0651 38.7951 23.6604 37.2606 18.5044 32.3697C18.5044 32.3697 17.1025 30.9831 12.3361 27.9141Z" fill="#C00C0B"/>
<path d="M40.6746 40.4813C40.6746 40.4813 43.7391 37.6773 47.384 33.7713C47.384 33.7713 44.7597 29.0869 37.8008 25.7109C37.8008 25.7109 41.5354 37.9842 40.6746 40.4813Z" fill="#C00C0B"/>
<path d="M24.9531 23.4492C24.9531 23.4492 37.8896 24.3113 40.6737 40.4822C40.6737 40.4822 43.7382 35.7252 41.4952 30.1452C41.4952 30.1452 40.0933 26.2392 36.4485 25.1232C36.4485 25.1232 31.9625 23.1702 24.9531 23.4492Z" fill="#C00C0B"/>
<path d="M55.5133 33.4944C57.9909 33.4944 59.9993 31.4958 59.9993 29.0304C59.9993 26.565 57.9909 24.5664 55.5133 24.5664C53.0358 24.5664 51.0273 26.565 51.0273 29.0304C51.0273 31.4958 53.0358 33.4944 55.5133 33.4944Z" fill="#C00C0B"/>
</svg>
