<svg width="140" height="22" viewBox="0 0 140 22" fill="none" xmlns="http://www.w3.org/2000/svg">
<path d="M6.94657 7.67789L12.2158 0.380859H18.4284L11.5655 8.73977L15.671 21.6185H9.99705L7.61918 13.5318L5.88882 15.6284L5.13248 21.6185H0L2.75463 0.380859H7.88712L6.941 7.67789H6.94657Z" fill="white"/>
<path d="M28.0973 21.6185H22.9648L25.7195 0.380859H30.852L28.0973 21.6185Z" fill="white"/>
<path d="M42.3924 11.5446C41.9068 15.2475 42.1217 17.5347 44.5526 17.5347H44.8484C46.6597 17.5347 47.4412 16.1733 47.6868 14.2673H52.8192L52.7913 14.5124C52.1969 20.0124 49.1436 22 44.4158 22C38.7419 22 36.2022 18.896 37.1762 11.5446L37.3101 10.5099C38.2814 3.15841 41.0388 0 46.7127 0C51.8452 0 54.357 2.36881 53.7095 7.48762L53.5756 8.5495H48.4431C48.7668 6.099 48.5771 4.46534 46.5509 4.46534H46.255C43.6874 4.46534 43.012 6.83416 42.5264 10.5099L42.3924 11.5446Z" fill="white"/>
<path d="M66.5169 7.67789L71.7861 0.380859H77.9987L71.1358 8.73977L75.2413 21.6185H69.5674L67.1895 13.5318L65.4591 15.6284L64.7028 21.6185H59.5703L62.3249 0.380859H67.4574L66.5113 7.67789H66.5169Z" fill="white"/>
<path d="M83.6447 9.91016H91.2081L90.6415 14.2666H83.0781L83.6447 9.91016Z" fill="white"/>
<path d="M115.116 10.4554L114.982 11.4901C114.008 18.8416 111.281 22 105.607 22C99.9333 22 97.3936 18.896 98.3676 11.5446L98.5015 10.5099C99.4728 3.15841 102.23 0 107.904 0C113.578 0 116.09 3.10396 115.119 10.4554H115.116ZM106.037 17.5347C108.468 17.5347 109.28 15.1931 109.766 11.4901L109.9 10.4554C110.385 6.75247 110.17 4.46534 107.739 4.46534H107.444C105.013 4.46534 104.201 6.80693 103.715 10.5099L103.581 11.5446C103.095 15.2475 103.31 17.5347 105.741 17.5347H106.04H106.037Z" fill="white"/>
<path d="M137.241 21.6185H131.838L127.542 9.91056L127.138 13.9947L126.166 21.6185H121.305L124.059 0.380859H129.463L133.758 12.0888L134.137 8.00463L135.136 0.380859H139.998L137.244 21.6185H137.241Z" fill="white"/>
</svg>
